<svg width="420" height="140" viewBox="0 0 420 140" fill="none" xmlns="http://www.w3.org/2000/svg">
  <rect width="420" height="140" rx="28" fill="#0B1016"/>
  <path d="M67 91.8V48.2H80.7L95.3 72.2L109.9 48.2H123.5V91.8H112V65.8L99.1 86.6H91.2L78.5 65.8V91.8H67Z" fill="#C9A04B"/>
  <path d="M148.7 92.9C144.233 92.9 140.267 91.9833 136.8 90.15C133.333 88.2833 130.617 85.6667 128.65 82.3C126.717 78.9 125.75 74.95 125.75 70.45C125.75 65.95 126.733 62.0167 128.7 58.65C130.667 55.25 133.383 52.6333 136.85 50.8C140.35 48.9333 144.35 48 148.85 48C152.817 48 156.367 48.7167 159.5 50.15C162.667 51.55 165.233 53.55 167.2 56.15L159.7 63.2C157.333 60.3333 154.333 58.9 150.7 58.9C147.5 58.9 144.9 59.9333 142.9 62C140.933 64.0333 139.95 66.85 139.95 70.45C139.95 74.05 140.933 76.8833 142.9 78.95C144.9 80.9833 147.5 82 150.7 82C154.333 82 157.333 80.5667 159.7 77.7L167.2 84.75C165.233 87.35 162.667 89.3667 159.5 90.8C156.367 92.2 152.767 92.9 148.7 92.9Z" fill="#C9A04B"/>
  <path d="M192.348 92.9C187.748 92.9 183.648 91.9833 180.048 90.15C176.482 88.2833 173.682 85.6833 171.648 82.35C169.648 78.9833 168.648 75.0167 168.648 70.45C168.648 65.8833 169.648 61.9333 171.648 58.6C173.682 55.2333 176.482 52.6333 180.048 50.8C183.648 48.9333 187.748 48 192.348 48C196.948 48 201.032 48.9333 204.598 50.8C208.198 52.6333 210.998 55.2333 212.998 58.6C215.032 61.9333 216.048 65.8833 216.048 70.45C216.048 75.0167 215.032 78.9833 212.998 82.35C210.998 85.6833 208.198 88.2833 204.598 90.15C201.032 91.9833 196.948 92.9 192.348 92.9ZM192.348 81.95C194.648 81.95 196.715 81.4167 198.548 80.35C200.382 79.25 201.815 77.7167 202.848 75.75C203.882 73.75 204.398 71.9833 204.398 70.45C204.398 68.9167 203.882 67.1667 202.848 65.2C201.815 63.2 200.382 61.6667 198.548 60.6C196.715 59.5 194.648 58.95 192.348 58.95C190.048 58.95 187.982 59.5 186.148 60.6C184.315 61.6667 182.882 63.2 181.848 65.2C180.815 67.1667 180.298 68.9167 180.298 70.45C180.298 71.9833 180.815 73.75 181.848 75.75C182.882 77.7167 184.315 79.25 186.148 80.35C187.982 81.4167 190.048 81.95 192.348 81.95Z" fill="#C9A04B"/>
  <path d="M241.92 92.9C236.253 92.9 231.837 91.3333 228.67 88.2C225.503 85.0667 223.92 80.5833 223.92 74.75V48.2H235.72V74.4C235.72 80.8667 237.77 84.1 241.87 84.1C245.937 84.1 247.97 80.8667 247.97 74.4V48.2H259.57V74.75C259.57 80.5833 257.987 85.0667 254.82 88.2C251.687 91.3333 247.387 92.9 241.92 92.9Z" fill="#C9A04B"/>
  <path d="M288.08 92.9C283.48 92.9 279.38 91.9833 275.78 90.15C272.214 88.2833 269.414 85.6833 267.38 82.35C265.38 78.9833 264.38 75.0167 264.38 70.45C264.38 65.8833 265.38 61.9333 267.38 58.6C269.414 55.2333 272.214 52.6333 275.78 50.8C279.38 48.9333 283.48 48 288.08 48C292.68 48 296.764 48.9333 300.33 50.8C303.93 52.6333 306.73 55.2333 308.73 58.6C310.764 61.9333 311.78 65.8833 311.78 70.45C311.78 75.0167 310.764 78.9833 308.73 82.35C306.73 85.6833 303.93 88.2833 300.33 90.15C296.764 91.9833 292.68 92.9 288.08 92.9ZM288.08 81.95C290.38 81.95 292.447 81.4167 294.28 80.35C296.114 79.25 297.547 77.7167 298.58 75.75C299.614 73.75 300.13 71.9833 300.13 70.45C300.13 68.9167 299.614 67.1667 298.58 65.2C297.547 63.2 296.114 61.6667 294.28 60.6C292.447 59.5 290.38 58.95 288.08 58.95C285.78 58.95 283.714 59.5 281.88 60.6C280.047 61.6667 278.614 63.2 277.58 65.2C276.547 67.1667 276.03 68.9167 276.03 70.45C276.03 71.9833 276.547 73.75 277.58 75.75C278.614 77.7167 280.047 79.25 281.88 80.35C283.714 81.4167 285.78 81.95 288.08 81.95Z" fill="#C9A04B"/>
  <path d="M323 44C321.2 44 319.733 43.4833 318.6 42.45C317.5 41.3833 316.95 40.05 316.95 38.45C316.95 36.8167 317.5 35.4833 318.6 34.45C319.733 33.3833 321.2 32.85 323 32.85C324.8 32.85 326.25 33.3833 327.35 34.45C328.483 35.4833 329.05 36.8167 329.05 38.45C329.05 40.05 328.483 41.3833 327.35 42.45C326.25 43.4833 324.8 44 323 44ZM350.15 44C348.35 44 346.883 43.4833 345.75 42.45C344.65 41.3833 344.1 40.05 344.1 38.45C344.1 36.8167 344.65 35.4833 345.75 34.45C346.883 33.3833 348.35 32.85 350.15 32.85C351.95 32.85 353.4 33.3833 354.5 34.45C355.633 35.4833 356.2 36.8167 356.2 38.45C356.2 40.05 355.633 41.3833 354.5 42.45C353.4 43.4833 351.95 44 350.15 44Z" fill="#C9A04B"/>
</svg>
